<svg xmlns="http://www.w3.org/2000/svg" xmlns:xlink="http://www.w3.org/1999/xlink" width="500" zoomAndPan="magnify" viewBox="0 0 375 374.999991" height="500" preserveAspectRatio="xMidYMid meet" version="1.0"><defs><g/></defs><g fill="#2d3250" fill-opacity="1"><g transform="translate(41.296877, 334.499978)"><g><path d="M 35.203125 -293.59375 L 257.59375 -293.59375 C 266.132812 -293.59375 272.40625 -292.59375 276.40625 -290.59375 C 280.40625 -288.59375 283.070312 -285.457031 284.40625 -281.1875 C 285.738281 -276.925781 286.40625 -271.328125 286.40625 -264.390625 C 286.40625 -257.460938 285.738281 -251.929688 284.40625 -247.796875 C 283.070312 -243.660156 280.800781 -240.796875 277.59375 -239.203125 C 272.800781 -236.796875 266.003906 -235.59375 257.203125 -235.59375 L 180.796875 -235.59375 L 180.796875 -34.40625 C 180.796875 -28.269531 180.59375 -23.734375 180.1875 -20.796875 C 179.789062 -17.867188 178.59375 -14.46875 176.59375 -10.59375 C 174.59375 -6.726562 171.0625 -3.992188 166 -2.390625 C 160.9375 -0.796875 154.269531 0 146 0 C 137.726562 0 131.125 -0.796875 126.1875 -2.390625 C 121.257812 -3.992188 117.796875 -6.726562 115.796875 -10.59375 C 113.796875 -14.46875 112.59375 -17.9375 112.1875 -21 C 111.789062 -24.0625 111.59375 -28.660156 111.59375 -34.796875 L 111.59375 -235.59375 L 34.796875 -235.59375 C 26.265625 -235.59375 20 -236.59375 16 -238.59375 C 12 -240.59375 9.332031 -243.726562 8 -248 C 6.664062 -252.269531 6 -257.867188 6 -264.796875 C 6 -271.734375 6.664062 -277.265625 8 -281.390625 C 9.332031 -285.523438 11.597656 -288.394531 14.796875 -290 C 19.597656 -292.394531 26.398438 -293.59375 35.203125 -293.59375 Z M 35.203125 -293.59375 "/></g></g></g></svg>